<?xml version="1.0" encoding="UTF-8" standalone="no"?>
<svg
   width="16"
   height="16"
   fill="currentColor"
   class="bi bi-0-circle"
   viewBox="0 0 16 16"
   version="1.1"
   id="svg2"
   sodipodi:docname="0-circle.svg"
   inkscape:version="1.3 (0e150ed6c4, 2023-07-21)"
   xmlns:inkscape="http://www.inkscape.org/namespaces/inkscape"
   xmlns:sodipodi="http://sodipodi.sourceforge.net/DTD/sodipodi-0.dtd"
   xmlns="http://www.w3.org/2000/svg"
   xmlns:svg="http://www.w3.org/2000/svg">
  <defs
     id="defs2" />
  <sodipodi:namedview
     id="namedview2"
     pagecolor="#ffffff"
     bordercolor="#999999"
     borderopacity="1"
     inkscape:showpageshadow="2"
     inkscape:pageopacity="0"
     inkscape:pagecheckerboard="0"
     inkscape:deskcolor="#d1d1d1"
     inkscape:zoom="45.9375"
     inkscape:cx="8"
     inkscape:cy="8"
     inkscape:window-width="1920"
     inkscape:window-height="991"
     inkscape:window-x="-9"
     inkscape:window-y="-9"
     inkscape:window-maximized="1"
     inkscape:current-layer="svg2" />
  <path
     d="M7.988 12.158c-1.851 0-2.941-1.57-2.941-3.99V7.84c0-2.408 1.101-3.996 2.965-3.996 1.857 0 2.935 1.57 2.935 3.996v.328c0 2.408-1.101 3.99-2.959 3.99M8 4.951c-1.008 0-1.629 1.09-1.629 2.895v.31c0 1.81.627 2.895 1.629 2.895s1.623-1.09 1.623-2.895v-.31c0-1.8-.621-2.895-1.623-2.895"
     id="path1" />
  <path
     d="m 16,8 c 0,4.418281 -3.581722,7.999997 -8,7.999997 C 3.5817221,15.999997 0,12.418281 0,8 0,3.581719 3.5817221,3.4729399e-6 8,3.4729399e-6 12.418278,3.4729399e-6 16,3.581719 16,8 M 1,8 c 0,3.865996 3.1340068,6.999997 7,6.999997 3.865993,0 7,-3.134001 7,-6.999997 C 15,4.1340041 11.865993,7.8136085 8,7.8136085 4.1340068,7.8136085 1,4.1340041 1,8"
     id="path2"
     sodipodi:nodetypes="csssccsssc" />
</svg>
